:FULLY-SPECIFIED
:FORCE-ALL-JOINTS-BE-3DOF
:DEGREES
849
root 3.85943 16.3128 28.1521 -9.40712 6.96454 359.324
lfemur -22.6932 1.06378 -17.3527
ltibia 37.1424 0 0
lfoot -7.38316 -13.3715 0
ltoes 3.1001 0 0
rfemur -35.2814 -3.17157 1.18142
rtibia 103.337 0 0
rfoot 35.5638 19.875 0
rtoes -4.35668 0 0
lowerback 4.29303 2.97202 -2.79538
upperback 1.11161 3.81618 0.253908
thorax -1.43554 1.91525 1.65287
lowerneck -6.25522 -3.74285 2.5063
upperneck 8.98732 -5.42175 1.42221
head 4.02482 -2.52299 -0.260923
lclavicle 3.19381e-14 4.2849e-15 0
lhumerus -50.2745 -10.5126 84.009
lradius 55.5535 0 0
lwrist 20.8968 0 0
lhand -2.8844 3.55839 0
lfingers 7.12502 0 0
lthumb 22.8243 32.2216 0
rclavicle 3.19381e-14 4.2849e-15 0
rhumerus -38.9539 14.6363 -66.7822
rradius 51.1703 0 0
rwrist 9.01045 0 0
rhand -35.8894 -32.3498 0
rfingers 7.12502 0 0
rthumb -9.00304 -782.136 0
850
root 3.86967 16.3176 28.2508 -10.1272 8.0548 359.555
lfemur -21.7203 1.35508 -17.9194
ltibia 37.2281 0 0
lfoot -7.58621 -14.4967 0
ltoes 4.46513 0 0
rfemur -38.9635 -2.75962 1.16443
rtibia 104.771 0 0
rfoot 34.5348 18.6381 0
rtoes -3.82544 0 0
lowerback 5.21345 2.5821 -3.22203
upperback 1.43953 3.24358 0.104924
thorax -1.59389 1.6288 1.74528
lowerneck -6.19208 -3.71889 2.49066
upperneck 8.90244 -5.39522 1.54555
head 3.98672 -2.50672 -0.213325
lclavicle 2.12327e-14 6.36108e-15 0
lhumerus -49.1865 -11.4221 83.6035
lradius 55.4413 0 0
lwrist 21.1704 0 0
lhand -2.36853 3.61138 0
lfingers 7.12502 0 0
lthumb 23.3192 32.2118 0
rclavicle 2.12327e-14 6.36108e-15 0
rhumerus -39.9004 13.5776 -65.7475
rradius 51.122 0 0
rwrist 8.77864 0 0
rhand -35.6189 -32.6216 0
rfingers 7.12502 0 0
rthumb -8.74202 -782.419 0
851
root 3.87991 16.3223 28.3495 -10.8472 9.14506 359.787
lfemur -20.7475 1.64637 -18.486
ltibia 37.3138 0 0
lfoot -7.78925 -15.6219 0
ltoes 5.83016 0 0
rfemur -42.6456 -2.34767 1.14743
rtibia 106.205 0 0
rfoot 33.5058 17.4012 0
rtoes -3.2942 0 0
lowerback 6.13386 2.19218 -3.64868
upperback 1.76746 2.67099 -0.0440601
thorax -1.75224 1.34235 1.8377
lowerneck -6.12893 -3.69493 2.47502
upperneck 8.81755 -5.3687 1.66889
head 3.94862 -2.49045 -0.165727
lclavicle 1.05273e-14 8.43727e-15 0
lhumerus -48.0986 -12.3315 83.1981
lradius 55.3291 0 0
lwrist 21.4441 0 0
lhand -1.85266 3.66436 0
lfingers 7.12502 0 0
lthumb 23.8141 32.202 0
rclavicle 1.05273e-14 8.43727e-15 0
rhumerus -40.8468 12.5189 -64.7127
rradius 51.0737 0 0
rwrist 8.54683 0 0
rhand -35.3484 -32.8934 0
rfingers 7.12502 0 0
rthumb -8.481 -782.702 0
852
root 3.88982 16.3268 28.4451 -11.5443 10.2005 360.011
lfemur -19.8057 1.92837 -19.0345
ltibia 37.3967 0 0
lfoot -7.98582 -16.7112 0
ltoes 7.15162 0 0
rfemur -46.2102 -1.94886 1.13098
rtibia 107.593 0 0
rfoot 32.5097 16.2038 0
rtoes -2.77992 0 0
lowerback 7.0249 1.81471 -4.06172
upperback 2.08491 2.11668 -0.188289
thorax -1.90554 1.06504 1.92716
lowerneck -6.06781 -3.67174 2.45987
upperneck 8.73537 -5.34303 1.7883
head 3.91173 -2.4747 -0.119648
lclavicle 1.63581e-16 1.04472e-14 0
lhumerus -47.0454 -13.212 82.8056
lradius 55.2204 0 0
lwrist 21.709 0 0
lhand -1.35325 3.71566 0
lfingers 7.12502 0 0
lthumb 24.2932 32.1925 0
rclavicle 1.63581e-16 1.04472e-14 0
rhumerus -41.7631 11.494 -63.711
rradius 51.0269 0 0
rwrist 8.32242 0 0
rhand -35.0866 -33.1565 0
rfingers 7.12502 0 0
rthumb -8.22831 -782.975 0
853
root 3.89908 16.3311 28.5343 -12.1954 11.1864 360.221
lfemur -18.926 2.19177 -19.5469
ltibia 37.4742 0 0
lfoot -8.16943 -17.7287 0
ltoes 8.38596 0 0
rfemur -49.5397 -1.57635 1.11562
rtibia 108.89 0 0
rfoot 31.5792 15.0853 0
rtoes -2.29955 0 0
lowerback 7.85719 1.46213 -4.44752
upperback 2.38144 1.59891 -0.323009
thorax -2.04873 0.806019 2.01072
lowerneck -6.01071 -3.65008 2.44573
upperneck 8.65861 -5.31905 1.89983
head 3.87728 -2.45999 -0.0766071
lclavicle -9.51682e-15 1.23246e-14 0
lhumerus -46.0617 -14.0344 82.439
lradius 55.1189 0 0
lwrist 21.9565 0 0
lhand -0.886775 3.76358 0
lfingers 7.12502 0 0
lthumb 24.7407 32.1836 0
rclavicle -9.51682e-15 1.23246e-14 0
rhumerus -42.619 10.5366 -62.7754
rradius 50.9832 0 0
rwrist 8.11281 0 0
rhand -34.842 -33.4023 0
rfingers 7.12502 0 0
rthumb -7.99228 -783.231 0
854
root 3.90772 16.3611 28.6072 -12.6596 12.0846 360.091
lfemur -18.0543 2.58626 -19.5778
ltibia 37.0045 0 0
lfoot -7.6823 -18.8591 0
ltoes 10.2544 0 0
rfemur -50.9883 -1.37379 1.42431
rtibia 104.642 0 0
rfoot 29.377 12.8173 0
rtoes -1.08916 0 0
lowerback 8.51607 1.11137 -4.47572
upperback 2.61711 1.10084 -0.417071
thorax -2.13296 0.557462 1.98771
lowerneck -6.01023 -3.62592 2.43744
upperneck 8.64117 -5.29853 2.04073
head 3.87603 -2.444 -0.0275068
lclavicle -3.84548e-15 7.8814e-15 0
lhumerus -44.9943 -14.8496 82.1991
lradius 55.0175 0 0
lwrist 22.0931 0 0
lhand -0.0878875 3.8689 0
lfingers 7.12502 0 0
lthumb 25.5049 32.1692 0
rclavicle -3.84548e-15 7.8814e-15 0
rhumerus -43.4995 9.53479 -61.8912
rradius 51.1096 0 0
rwrist 7.26945 0 0
rhand -32.9544 -32.8194 0
rfingers 7.12502 0 0
rthumb -6.16945 -782.667 0
855
root 3.91697 16.3933 28.6853 -13.1565 13.0463 359.952
lfemur -17.1211 3.00859 -19.6108
ltibia 36.5016 0 0
lfoot -7.16078 -20.0693 0
ltoes 12.2546 0 0
rfemur -52.5392 -1.15694 1.75478
rtibia 100.094 0 0
rfoot 27.0193 10.3892 0
rtoes 0.20667 0 0
lowerback 9.22145 0.735845 -4.50592
upperback 2.86941 0.567622 -0.517773
thorax -2.22314 0.29136 1.96308
lowerneck -6.00971 -3.60005 2.42857
upperneck 8.6225 -5.27657 2.19158
head 3.87469 -2.42689 0.0250593
lclavicle 2.2262e-15 3.12456e-15 0
lhumerus -43.8515 -15.7224 81.9422
lradius 54.909 0 0
lwrist 22.2394 0 0
lhand 0.767392 3.98166 0
lfingers 7.12502 0 0
lthumb 26.3231 32.1539 0
rclavicle 2.2262e-15 3.12456e-15 0
rhumerus -44.4421 8.46226 -60.9445
rradius 51.2449 0 0
rwrist 6.36656 0 0
rhand -30.9335 -32.1954 0
rfingers 7.12502 0 0
rthumb -4.21794 -782.064 0
856
root 3.92652 16.4265 28.766 -13.6698 14.0396 359.809
lfemur -16.1571 3.44484 -19.645
ltibia 35.9821 0 0
lfoot -6.62207 -21.3194 0
ltoes 14.3209 0 0
rfemur -54.1412 -0.932933 2.09615
rtibia 95.396 0 0
rfoot 24.5839 7.88099 0
rtoes 1.54522 0 0
lowerback 9.9501 0.347942 -4.53711
upperback 3.13003 0.01682 -0.621795
thorax -2.31628 0.016486 1.93763
lowerneck -6.00917 -3.57334 2.4194
upperneck 8.60321 -5.25388 2.3474
head 3.8733 -2.40921 0.0793585
lclavicle 8.49804e-15 -1.7891e-15 0
lhumerus -42.6711 -16.6239 81.6769
lradius 54.797 0 0
lwrist 22.3906 0 0
lhand 1.65087 4.09814 0
lfingers 7.12502 0 0
lthumb 27.1682 32.138 0
rclavicle 8.49804e-15 -1.7891e-15 0
rhumerus -45.4157 7.35437 -59.9666
rradius 51.3847 0 0
rwrist 5.43391 0 0
rhand -28.8459 -31.5507 0
rfingers 7.12502 0 0
rthumb -2.2021 -781.44 0
